# xmcd CD database file
#
# Track frame offsets:
#	150
#	52512
#	84232
#	120787
#	155132
#	201702
#	216452
#	252375
#	278663
#
# Disc length: 4151 seconds
#
# Revision: 0
# Processed by: cddbd v1.5.1PL0 Copyright (c) Steve Scherf et al.
# Submitted via: CDex 1.51
#
DISCID=7a103509
DTITLE=Keith Jarrett - Tokio 96'
DYEAR=1998
DGENRE=Jazz
TTITLE0=It could happen to you
TTITLE1=Never let me go
TTITLE2=Billie's bounce
TTITLE3=Summer night
TTITLE4=I'll remember april
TTITLE5=Mona Lisa
TTITLE6=Autumn leaves
TTITLE7=Last night when we were young carribbean sky
TTITLE8=My funny valentine song
EXTD=YEAR: 1998
EXTT0=
EXTT1=
EXTT2=
EXTT3=
EXTT4=
EXTT5=
EXTT6=
EXTT7=
EXTT8=
PLAYORDER=
